<?xml version="1.0" encoding="UTF-8"?>
<svg version="1.1" xmlns="http://www.w3.org/2000/svg" width="256" height="256">
<path d="M0 0 C84.48 0 168.96 0 256 0 C256 84.48 256 168.96 256 256 C171.52 256 87.04 256 0 256 C0 171.52 0 87.04 0 0 Z " fill="#E23927" transform="translate(0,0)"/>
<path d="M0 0 C14.85 0 29.7 0 45 0 C45 4.62 45 9.24 45 14 C56.55 14 68.1 14 80 14 C80 18.29 80 22.58 80 27 C84.95 27 89.9 27 95 27 C95 40.53 95 54.06 95 68 C92.03 68 89.06 68 86 68 C86 76.58 86 85.16 86 94 C92.27 94 98.54 94 105 94 C105 89.71 105 85.42 105 81 C108.63 81 112.26 81 116 81 C116 76.38 116 71.76 116 67 C112.37 67 108.74 67 105 67 C105 62.71 105 58.42 105 54 C108.63 54 112.26 54 116 54 C116 49.71 116 45.42 116 41 C112.37 41 108.74 41 105 41 C105 36.38 105 31.76 105 27 C108.3 27 111.6 27 115 27 C114.98839844 26.22914062 114.97679688 25.45828125 114.96484375 24.6640625 C114.95582031 23.66117188 114.94679688 22.65828125 114.9375 21.625 C114.92589844 20.62726562 114.91429688 19.62953125 114.90234375 18.6015625 C115 16 115 16 116 14 C112.7 14 109.4 14 106 14 C106 9.38 106 4.76 106 0 C109.3 0 112.6 0 116 0 C116 4.29 116 8.58 116 13 C123.26 13 130.52 13 138 13 C138 17.95 138 22.9 138 28 C134.37 28 130.74 28 127 28 C127 32.62 127 37.24 127 42 C130.63 42 134.26 42 138 42 C138 45.96 138 49.92 138 54 C134.37 54 130.74 54 127 54 C127 67.2 127 80.4 127 94 C123.37 94 119.74 94 116 94 C116 98.62 116 103.24 116 108 C123.26 108 130.52 108 138 108 C138 99.09 138 90.18 138 81 C141.3 81 144.6 81 148 81 C151.07318149 84.07318149 149 89.65386506 149 94 C165.335 94.495 165.335 94.495 182 95 C182 103.58 182 112.16 182 121 C185.3 121 188.6 121 192 121 C192 134.53 192 148.06 192 162 C188.37 162 184.74 162 181 162 C181 175.53 181 189.06 181 203 C187.93 203 194.86 203 202 203 C202 207.29 202 211.58 202 216 C205.63 216 209.26 216 213 216 C213 220.62 213 225.24 213 230 C139.08 230 65.16 230 -11 230 C-11 198.65 -11 167.3 -11 135 C-3.74 135 3.52 135 11 135 C11 143.91 11 152.82 11 162 C18.26 162 25.52 162 33 162 C33 153.09 33 144.18 33 135 C36.63 135 40.26 135 44 135 C44 130.38 44 125.76 44 121 C47.96 121 51.92 121 56 121 C56 116.71 56 112.42 56 108 C52.04 108 48.08 108 44 108 C44 103.71 44 99.42 44 95 C37.07 95 30.14 95 23 95 C23 90.38 23 85.76 23 81 C19.04 81 15.08 81 11 81 C11 76.38 11 71.76 11 67 C14.96 67 18.92 67 23 67 C23 58.42 23 49.84 23 41 C19.04 41 15.08 41 11 41 C11 36.71 11 32.42 11 28 C7.37 28 3.74 28 0 28 C0 18.76 0 9.52 0 0 Z " fill="#E33927" transform="translate(11,26)"/>
<path d="M0 0 C14.85 0 29.7 0 45 0 C45 4.62 45 9.24 45 14 C56.55 14 68.1 14 80 14 C80 18.29 80 22.58 80 27 C84.95 27 89.9 27 95 27 C95 40.53 95 54.06 95 68 C92.03 68 89.06 68 86 68 C86 76.58 86 85.16 86 94 C92.27 94 98.54 94 105 94 C105 89.71 105 85.42 105 81 C108.63 81 112.26 81 116 81 C116 76.38 116 71.76 116 67 C112.37 67 108.74 67 105 67 C105 62.71 105 58.42 105 54 C108.63 54 112.26 54 116 54 C116 49.71 116 45.42 116 41 C112.37 41 108.74 41 105 41 C105 36.38 105 31.76 105 27 C108.3 27 111.6 27 115 27 C114.98839844 26.22914062 114.97679688 25.45828125 114.96484375 24.6640625 C114.95582031 23.66117188 114.94679688 22.65828125 114.9375 21.625 C114.92589844 20.62726562 114.91429688 19.62953125 114.90234375 18.6015625 C115 16 115 16 116 14 C112.7 14 109.4 14 106 14 C106 9.38 106 4.76 106 0 C109.3 0 112.6 0 116 0 C116 4.29 116 8.58 116 13 C123.26 13 130.52 13 138 13 C138 17.95 138 22.9 138 28 C134.37 28 130.74 28 127 28 C127 32.62 127 37.24 127 42 C130.63 42 134.26 42 138 42 C138 45.96 138 49.92 138 54 C134.37 54 130.74 54 127 54 C127 67.2 127 80.4 127 94 C123.37 94 119.74 94 116 94 C116 98.62 116 103.24 116 108 C108.41 108 100.82 108 93 108 C93 112.29 93 116.58 93 121 C84.75 121 76.5 121 68 121 C68 125.95 68 130.9 68 136 C64.04 136 60.08 136 56 136 C56 140.62 56 145.24 56 150 C52.37 150 48.74 150 45 150 C45 154.29 45 158.58 45 163 C41.37 163 37.74 163 34 163 C34 167.29 34 171.58 34 176 C26.41 176 18.82 176 11 176 C11 171.38 11 166.76 11 162 C18.26 162 25.52 162 33 162 C33 153.09 33 144.18 33 135 C36.63 135 40.26 135 44 135 C44 130.38 44 125.76 44 121 C47.96 121 51.92 121 56 121 C56 116.71 56 112.42 56 108 C52.04 108 48.08 108 44 108 C44 103.71 44 99.42 44 95 C37.07 95 30.14 95 23 95 C23 90.38 23 85.76 23 81 C19.04 81 15.08 81 11 81 C11 76.38 11 71.76 11 67 C14.96 67 18.92 67 23 67 C23 58.42 23 49.84 23 41 C19.04 41 15.08 41 11 41 C11 36.71 11 32.42 11 28 C7.37 28 3.74 28 0 28 C0 18.76 0 9.52 0 0 Z " fill="#6F2729" transform="translate(11,26)"/>
<path d="M0 0 C34.65 0 69.3 0 105 0 C105 8.58 105 17.16 105 26 C108.63 26 112.26 26 116 26 C116 30.62 116 35.24 116 40 C119.63 40 123.26 40 127 40 C126.67 44.29 126.34 48.58 126 53 C122.7 53 119.4 53 116 53 C116 57.62 116 62.24 116 67 C119.63 67 123.26 67 127 67 C127 71.29 127 75.58 127 80 C123.37 80 119.74 80 116 80 C116 84.29 116 88.58 116 93 C119.63 93 123.26 93 127 93 C127 97.62 127 102.24 127 107 C123.37 107 119.74 107 116 107 C116 111.29 116 115.58 116 120 C109.73 120 103.46 120 97 120 C97 111.42 97 102.84 97 94 C99.97 94 102.94 94 106 94 C106 80.47 106 66.94 106 53 C101.05 53 96.1 53 91 53 C91 48.71 91 44.42 91 40 C79.45 40 67.9 40 56 40 C56 35.38 56 30.76 56 26 C41.15 26 26.3 26 11 26 C11 35.24 11 44.48 11 54 C14.63 54 18.26 54 22 54 C22 58.29 22 62.58 22 67 C25.96 67 29.92 67 34 67 C34 75.58 34 84.16 34 93 C30.04 93 26.08 93 22 93 C22 97.62 22 102.24 22 107 C25.96 107 29.92 107 34 107 C34 111.62 34 116.24 34 121 C40.93 121 47.86 121 55 121 C55 125.29 55 129.58 55 134 C58.96 134 62.92 134 67 134 C67 138.29 67 142.58 67 147 C63.04 147 59.08 147 55 147 C55 151.62 55 156.24 55 161 C51.37 161 47.74 161 44 161 C44 169.91 44 178.82 44 188 C36.74 188 29.48 188 22 188 C22 179.09 22 170.18 22 161 C14.74 161 7.48 161 0 161 C0 107.87 0 54.74 0 0 Z " fill="#FEFDFD" transform="translate(0,0)"/>
<path d="M0 0 C18.81 0 37.62 0 57 0 C57 49.17 57 98.34 57 149 C46.44 149 35.88 149 25 149 C25 144.38 25 139.76 25 135 C21.37 135 17.74 135 14 135 C14 130.71 14 126.42 14 122 C7.07 122 0.14 122 -7 122 C-7 113.09 -7 104.18 -7 95 C-3.37 95 0.26 95 4 95 C4 90.71 4 86.42 4 82 C5.98 82 7.96 82 10 82 C10 63.52 10 45.04 10 26 C6.7 26 3.4 26 0 26 C0 17.42 0 8.84 0 0 Z " fill="#FEFEFE" transform="translate(199,107)"/>
<path d="M0 0 C7.26 0 14.52 0 22 0 C22 13.53 22 27.06 22 41 C29.59 41 37.18 41 45 41 C45 36.71 45 32.42 45 28 C48.63 28 52.26 28 56 28 C56 23.71 56 19.42 56 15 C59.63 15 63.26 15 67 15 C67 10.38 67 5.76 67 1 C70.96 1 74.92 1 79 1 C79 1.33 79 1.66 79 2 C75.37 2 71.74 2 68 2 C68 14.87 68 27.74 68 41 C71.63 41 75.26 41 79 41 C80.27008829 46.08035315 79.61449736 49.81091121 79 55 C75.37 55 71.74 55 68 55 C68 63.58 68 72.16 68 81 C73.94 80.505 73.94 80.505 80 80 C79.979375 78.040625 79.95875 76.08125 79.9375 74.0625 C79.91622812 72.04167124 79.92755947 70.01964199 80 68 C81 67 81 67 83.22485352 66.88647461 C84.66235962 66.89432983 84.66235962 66.89432983 86.12890625 66.90234375 C87.68061523 66.90717773 87.68061523 66.90717773 89.26367188 66.91210938 C90.35228516 66.92048828 91.44089844 66.92886719 92.5625 66.9375 C94.2012207 66.94426758 94.2012207 66.94426758 95.87304688 66.95117188 C98.58205432 66.9630016 101.2910338 66.98093769 104 67 C104 71.95 104 76.9 104 82 C107.96 82 111.92 82 116 82 C116 86.29 116 90.58 116 95 C77.72 95 39.44 95 0 95 C0 63.65 0 32.3 0 0 Z " fill="#B62A26" transform="translate(0,161)"/>
<path d="M0 0 C10.89 0 21.78 0 33 0 C33 4.62 33 9.24 33 14 C40.92 14 48.84 14 57 14 C57 18.29 57 22.58 57 27 C60.96 27 64.92 27 69 27 C69 35.91 69 44.82 69 54 C65.04 54 61.08 54 57 54 C57 67.2 57 80.4 57 94 C49.08 94 41.16 94 33 94 C33 89.71 33 85.42 33 81 C26.07 81 19.14 81 12 81 C12 76.38 12 71.76 12 67 C8.04 67 4.08 67 0 67 C0 62.38 0 57.76 0 53 C3.96 53 7.92 53 12 53 C12 39.8 12 26.6 12 13 C8.04 13 4.08 13 0 13 C0 8.71 0 4.42 0 0 Z " fill="#B32926" transform="translate(22,40)"/>
<path d="M0 0 C46.2 0 92.4 0 140 0 C140 17.49 140 34.98 140 53 C129.77 53 119.54 53 109 53 C109 48.38 109 43.76 109 39 C101.74 39 94.48 39 87 39 C87 34.71 87 30.42 87 26 C79.41 26 71.82 26 64 26 C64 21.71 64 17.42 64 13 C53.77 13 43.54 13 33 13 C33 16.96 33 20.92 33 25 C32 26 32 26 29.49609375 26.09765625 C26.6640625 26.06510417 23.83203125 26.03255208 21 26 C21 21.71 21 17.42 21 13 C14.07 13 7.14 13 0 13 C0 8.71 0 4.42 0 0 Z " fill="#FEFDFD" transform="translate(116,0)"/>
<path d="M0 0 C3.63 0 7.26 0 11 0 C11 8.58 11 17.16 11 26 C18.26 26 25.52 26 33 26 C33 21.71 33 17.42 33 13 C40.71484375 12.90234375 40.71484375 12.90234375 43 13 C44 14 44 14 44.11352539 16.50024414 C44.10828857 17.58426514 44.10305176 18.66828613 44.09765625 19.78515625 C44.09443359 20.95498047 44.09121094 22.12480469 44.08789062 23.33007812 C44.07532227 25.17762695 44.07532227 25.17762695 44.0625 27.0625 C44.05798828 28.29806641 44.05347656 29.53363281 44.04882812 30.80664062 C44.03699608 33.87114117 44.02051173 36.93554721 44 40 C47.63 40 51.26 40 55 40 C55 44.62 55 49.24 55 54 C51.37 54 47.74 54 44 54 C44 49.71 44 45.42 44 41 C36.74 41 29.48 41 22 41 C22 45.29 22 49.58 22 54 C23.65 54 25.3 54 27 54 C27 58.29 27 62.58 27 67 C21.72 67 16.44 67 11 67 C11 62.71 11 58.42 11 54 C7.04 54 3.08 54 -1 54 C-1 49.05 -1 44.1 -1 39 C-5.29 39 -9.58 39 -14 39 C-14 34.71 -14 30.42 -14 26 C-9.38 26 -4.76 26 0 26 C0 17.42 0 8.84 0 0 Z " fill="#772728" transform="translate(105,189)"/>
<path d="M0 0 C10.56 0 21.12 0 32 0 C32 4.62 32 9.24 32 14 C23.42 14 14.84 14 6 14 C6 22.58 6 31.16 6 40 C9.3 40 12.6 40 16 40 C16 58.48 16 76.96 16 96 C14.02 96 12.04 96 10 96 C10 100.29 10 104.58 10 109 C6.37 109 2.74 109 -1 109 C-1 104.38 -1 99.76 -1 95 C2.63 95 6.26 95 10 95 C10 81.47 10 67.94 10 54 C6.7 54 3.4 54 0 54 C0 45.42 0 36.84 0 28 C-7.26 28 -14.52 28 -22 28 C-22 23.38 -22 18.76 -22 14 C-14.74 14 -7.48 14 0 14 C0 9.38 0 4.76 0 0 Z " fill="#772628" transform="translate(193,93)"/>
<path d="M0 0 C8.25 0 16.5 0 25 0 C25 4.29 25 8.58 25 13 C20.71 13 16.42 13 12 13 C12 17.95 12 22.9 12 28 C8.04 28 4.08 28 0 28 C0 32.62 0 37.24 0 42 C-3.63 42 -7.26 42 -11 42 C-11 46.29 -11 50.58 -11 55 C-14.63 55 -18.26 55 -22 55 C-22 59.29 -22 63.58 -22 68 C-29.59 68 -37.18 68 -45 68 C-45 63.38 -45 58.76 -45 54 C-37.74 54 -30.48 54 -23 54 C-23 45.09 -23 36.18 -23 27 C-19.37 27 -15.74 27 -12 27 C-12 22.38 -12 17.76 -12 13 C-8.04 13 -4.08 13 0 13 C0 8.71 0 4.42 0 0 Z " fill="#952326" transform="translate(67,134)"/>
<path d="M0 0 C5.1665625 -0.0309375 5.1665625 -0.0309375 10.4375 -0.0625 C11.52474365 -0.071604 12.6119873 -0.08070801 13.73217773 -0.09008789 C15.00750366 -0.09383423 15.00750366 -0.09383423 16.30859375 -0.09765625 C17.62041626 -0.10551147 17.62041626 -0.10551147 18.95874023 -0.11352539 C21 0 21 0 22 1 C22.07244053 3.01964199 22.08377188 5.04167124 22.0625 7.0625 C22.05347656 8.16722656 22.04445312 9.27195312 22.03515625 10.41015625 C22.02355469 11.26480469 22.01195312 12.11945313 22 13 C25.63 13 29.26 13 33 13 C33 21.91 33 30.82 33 40 C29.37 40 25.74 40 22 40 C21.505 34.06 21.505 34.06 21 28 C17.7 27.67 14.4 27.34 11 27 C11 35.91 11 44.82 11 54 C3.74 54 -3.52 54 -11 54 C-11 49.38 -11 44.76 -11 40 C-7.37 40 -3.74 40 0 40 C0 26.8 0 13.6 0 0 Z " fill="#BE2B25" transform="translate(138,80)"/>
<path d="M0 0 C3.63 0 7.26 0 11 0 C11 4.29 11 8.58 11 13 C22.22 13 33.44 13 45 13 C45 8.71 45 4.42 45 0 C48.63 0 52.26 0 56 0 C56 8.91 56 17.82 56 27 C60.29 27 64.58 27 69 27 C69 31.29 69 35.58 69 40 C60.75 40 52.5 40 44 40 C44 35.71 44 31.42 44 27 C32.78 27 21.56 27 10 27 C10 22.71 10 18.42 10 14 C6.7 14 3.4 14 0 14 C0 9.38 0 4.76 0 0 Z " fill="#772A2C" transform="translate(11,216)"/>
<path d="M0 0 C3.63 0 7.26 0 11 0 C11 4.62 11 9.24 11 14 C14.3 14 17.6 14 21 14 C21 18.29 21 22.58 21 27 C32.22 27 43.44 27 55 27 C55 31.29 55 35.58 55 40 C36.85 40 18.7 40 0 40 C0 26.8 0 13.6 0 0 Z " fill="#FEFDFD" transform="translate(0,216)"/>
<path d="M0 0 C6.93 0 13.86 0 21 0 C21 4.29 21 8.58 21 13 C24.63 13 28.26 13 32 13 C32 17.62 32 22.24 32 27 C17.81 27 3.62 27 -11 27 C-11 22.38 -11 17.76 -11 13 C-7.37 13 -3.74 13 0 13 C0 8.71 0 4.42 0 0 Z " fill="#772C2E" transform="translate(192,229)"/>
<path d="M0 0 C3.63 0 7.26 0 11 0 C11 4.29 11 8.58 11 13 C17.93 13 24.86 13 32 13 C32 17.29 32 21.58 32 26 C35.96 25.67 39.92 25.34 44 25 C44 29.62 44 34.24 44 39 C36.74 39 29.48 39 22 39 C22 34.71 22 30.42 22 26 C18.7 26 15.4 26 12 26 C12 30.62 12 35.24 12 40 C11.67 40 11.34 40 11 40 C11 35.38 11 30.76 11 26 C7.37 26 3.74 26 0 26 C0 17.42 0 8.84 0 0 Z " fill="#EB604D" transform="translate(105,0)"/>
<path d="M0 0 C0.33 0 0.66 0 1 0 C1 6.6 1 13.2 1 20 C4.96 19.67 8.92 19.34 13 19 C12.979375 17.040625 12.95875 15.08125 12.9375 13.0625 C12.91622812 11.04167124 12.92755947 9.01964199 13 7 C14 6 14 6 16.22485352 5.88647461 C17.18319092 5.89171143 18.14152832 5.89694824 19.12890625 5.90234375 C20.68061523 5.90717773 20.68061523 5.90717773 22.26367188 5.91210938 C23.35228516 5.92048828 24.44089844 5.92886719 25.5625 5.9375 C27.2012207 5.94426758 27.2012207 5.94426758 28.87304688 5.95117188 C31.58205432 5.9630016 34.2910338 5.98093769 37 6 C37 10.95 37 15.9 37 21 C40.96 21 44.92 21 49 21 C49 25.29 49 29.58 49 34 C37.12 34 25.24 34 13 34 C13 29.71 13 25.42 13 21 C8.71 21 4.42 21 0 21 C0 14.07 0 7.14 0 0 Z " fill="#BE2E27" transform="translate(67,222)"/>
<path d="M0 0 C3.63 0 7.26 0 11 0 C11 8.91 11 17.82 11 27 C7.37 26.67 3.74 26.34 0 26 C0 30.29 0 34.58 0 39 C-7.26 39 -14.52 39 -22 39 C-22 30.42 -22 21.84 -22 13 C-14.74 13 -7.48 13 0 13 C0 8.71 0 4.42 0 0 Z " fill="#BC2A25" transform="translate(138,176)"/>
<path d="M0 0 C7.26 0 14.52 0 22 0 C22 4.62 22 9.24 22 14 C18.37 14 14.74 14 11 14 C11 27.53 11 41.06 11 55 C7.37 55 3.74 55 0 55 C0 36.85 0 18.7 0 0 Z " fill="#732A2C" transform="translate(0,161)"/>
<path d="M0 0 C3.3 0 6.6 0 10 0 C10 4.29 10 8.58 10 13 C13.63 13 17.26 13 21 13 C21 21.91 21 30.82 21 40 C11 40 11 40 0 39 C0 26.13 0 13.26 0 0 Z " fill="#762628" transform="translate(171,189)"/>
<path d="M0 0 C7.26 0 14.52 0 22 0 C22 4.29 22 8.58 22 13 C25.63 13 29.26 13 33 13 C33 17.29 33 21.58 33 26 C23.76 26 14.52 26 5 26 C5 21.71 5 17.42 5 13 C3.35 13 1.7 13 0 13 C0 8.71 0 4.42 0 0 Z " fill="#F8F6F6" transform="translate(127,230)"/>
<path d="M0 0 C10.89 0 21.78 0 33 0 C33 3.96 33 7.92 33 12 C43.56 12 54.12 12 65 12 C65 16.62 65 21.24 65 26 C64.67 26 64.34 26 64 26 C64 21.71 64 17.42 64 13 C53.77 13 43.54 13 33 13 C33 16.96 33 20.92 33 25 C32 26 32 26 29.49609375 26.09765625 C26.6640625 26.06510417 23.83203125 26.03255208 21 26 C21 21.71 21 17.42 21 13 C14.07 13 7.14 13 0 13 C0 8.71 0 4.42 0 0 Z " fill="#B38682" transform="translate(116,0)"/>
<path d="M0 0 C3.63 0 7.26 0 11 0 C11 8.91 11 17.82 11 27 C14.63 27 18.26 27 22 27 C23 28 23 28 23.1328125 30.6875 C23.13023438 31.780625 23.12765625 32.87375 23.125 34 C23.12886719 35.6396875 23.12886719 35.6396875 23.1328125 37.3125 C23 40 23 40 22 41 C20.36527118 41.08700342 18.72685945 41.10701063 17.08984375 41.09765625 C16.199021 41.09515869 15.30819824 41.09266113 14.39038086 41.09008789 C13.25093018 41.08098389 12.11147949 41.07187988 10.9375 41.0625 C7.328125 41.041875 3.71875 41.02125 0 41 C0 27.47 0 13.94 0 0 Z " fill="#BC2D27" transform="translate(11,175)"/>
<path d="M0 0 C7.26 0 14.52 0 22 0 C22 9.24 22 18.48 22 28 C15.07 28 8.14 28 1 28 C0.33349465 21.33494648 -0.13380321 15.02197348 -0.0625 8.375 C-0.041875 5.61125 -0.02125 2.8475 0 0 Z " fill="#EE4A40" transform="translate(180,147)"/>
<path d="M0 0 C3.63 0 7.26 0 11 0 C11.02685938 2.14576637 11.04633088 4.29162645 11.0625 6.4375 C11.07410156 7.63246094 11.08570312 8.82742187 11.09765625 10.05859375 C11 13 11 13 10 14 C7.32941149 14.14115161 4.67567762 14.04247107 2 14 C2.78375 14.144375 3.5675 14.28875 4.375 14.4375 C7 15 7 15 9 16 C8.195625 16.61875 7.39125 17.2375 6.5625 17.875 C3.96125481 19.74164041 3.96125481 19.74164041 3 22 C3.33 22.66 3.66 23.32 4 24 C5.65 24 7.3 24 9 24 C8.34 22.35 7.68 20.7 7 19 C7.99 18.34 8.98 17.68 10 17 C10.33 20.63 10.66 24.26 11 28 C7.37 28 3.74 28 0 28 C0 32.29 0 36.58 0 41 C-3.63 41 -7.26 41 -11 41 C-11 32.09 -11 23.18 -11 14 C-7.37 14 -3.74 14 0 14 C0 9.38 0 4.76 0 0 Z " fill="#712426" transform="translate(56,148)"/>
<path d="M0 0 C3.3 0 6.6 0 10 0 C10 4.29 10 8.58 10 13 C17.26 13 24.52 13 32 13 C32 17.95 32 22.9 32 28 C28.37 28 24.74 28 21 28 C21 32.62 21 37.24 21 42 C24.63 42 28.26 42 32 42 C32 45.96 32 49.92 32 54 C28.37 54 24.74 54 21 54 C21 67.2 21 80.4 21 94 C20.67 94 20.34 94 20 94 C20.00523682 92.7217334 20.01047363 91.4434668 20.01586914 90.12646484 C20.03431407 85.26937595 20.04557232 80.41228996 20.05493164 75.55517578 C20.05988349 73.47444128 20.06664674 71.3937101 20.07543945 69.31298828 C20.12542617 57.15739481 20.02102058 45.06601362 19.17677307 32.93417358 C19.09978432 31.65312241 19.09978432 31.65312241 19.02124023 30.34619141 C18.96926987 29.60059967 18.9172995 28.85500793 18.86375427 28.08682251 C19.02378916 25.63563069 19.8719325 24.15835758 21 22 C21 21.01 21 20.02 21 19 C18.18490007 16.7226499 18.18490007 16.7226499 15 17 C15 16.34 15 15.68 15 15 C14.34 15 13.68 15 13 15 C12.67 16.65 12.34 18.3 12 20 C11.67 20 11.34 20 11 20 C10.67 18.35 10.34 16.7 10 15 C6.7 14.67 3.4 14.34 0 14 C0 9.38 0 4.76 0 0 Z " fill="#802324" transform="translate(117,26)"/>
<path d="M0 0 C10.23 0 20.46 0 31 0 C31 4.29 31 8.58 31 13 C20.77 13 10.54 13 0 13 C0 8.71 0 4.42 0 0 Z " fill="#6B2526" transform="translate(149,13)"/>
<path d="M0 0 C0 4.95 0 9.9 0 15 C-8.25 15 -16.5 15 -25 15 C-25 10.05 -25 5.1 -25 0 C-18.32304968 -3.33847516 -7.08402133 -0.60289543 0 0 Z " fill="#BB2A25" transform="translate(104,147)"/>
<path d="M0 0 C3.3 0 6.6 0 10 0 C11.92572521 3.85145043 11.04883218 8.80043252 11 13 C14.63 13 18.26 13 22 13 C22 17.62 22 22.24 22 27 C18.37 27 14.74 27 11 27 C11 22.71 11 18.42 11 14 C7.7 14 4.4 14 1 14 C1 26.87 1 39.74 1 53 C4.63 53 8.26 53 12 53 C12 53.33 12 53.66 12 54 C8.04 54 4.08 54 0 54 C0 36.18 0 18.36 0 0 Z " fill="#BB2C26" transform="translate(170,175)"/>
<path d="M0 0 C8.25 0 16.5 0 25 0 C25 4.29 25 8.58 25 13 C16.75 13 8.5 13 0 13 C0 8.71 0 4.42 0 0 Z " fill="#792729" transform="translate(91,243)"/>
<path d="M0 0 C7.26 0 14.52 0 22 0 C22 4.62 22 9.24 22 14 C14.74 14 7.48 14 0 14 C0 9.38 0 4.76 0 0 Z " fill="#BF2E27" transform="translate(181,242)"/>
<path d="M0 0 C3.31255326 -0.02683436 6.62489183 -0.0467578 9.9375 -0.0625 C10.88302734 -0.07087891 11.82855469 -0.07925781 12.80273438 -0.08789062 C14.15141602 -0.09272461 14.15141602 -0.09272461 15.52734375 -0.09765625 C16.77632446 -0.10551147 16.77632446 -0.10551147 18.05053711 -0.11352539 C20 0 20 0 21 1 C21.07244053 3.01964199 21.08377188 5.04167124 21.0625 7.0625 C21.05347656 8.16722656 21.04445312 9.27195312 21.03515625 10.41015625 C21.02355469 11.26480469 21.01195312 12.11945313 21 13 C24.3 13 27.6 13 31 13 C31 13.33 31 13.66 31 14 C20.77 14 10.54 14 0 14 C0 9.38 0 4.76 0 0 Z " fill="#C22E27" transform="translate(225,93)"/>
<path d="M0 0 C7.59 0 15.18 0 23 0 C23 4.29 23 8.58 23 13 C15.41 13 7.82 13 0 13 C0 8.71 0 4.42 0 0 Z " fill="#752527" transform="translate(22,189)"/>
<path d="M0 0 C7.26 0 14.52 0 22 0 C22 8.58 22 17.16 22 26 C21.67 26 21.34 26 21 26 C21 21.71 21 17.42 21 13 C14.07 13 7.14 13 0 13 C0 8.71 0 4.42 0 0 Z " fill="#C12D26" transform="translate(171,121)"/>
<path d="M0 0 C7.26 0 14.52 0 22 0 C22 4.29 22 8.58 22 13 C14.74 13 7.48 13 0 13 C0 8.71 0 4.42 0 0 Z " fill="#E5362E" transform="translate(116,202)"/>
<path d="M0 0 C3.63 0 7.26 0 11 0 C11 8.58 11 17.16 11 26 C7.37 26 3.74 26 0 26 C0 17.42 0 8.84 0 0 Z " fill="#672324" transform="translate(34,67)"/>
<path d="M0 0 C6.93 0 13.86 0 21 0 C21 4.29 21 8.58 21 13 C14.07 13 7.14 13 0 13 C0 8.71 0 4.42 0 0 Z " fill="#6A2224" transform="translate(34,107)"/>
<path d="M0 0 C3.3 0 6.6 0 10 0 C10 8.91 10 17.82 10 27 C6.7 27 3.4 27 0 27 C0 18.09 0 9.18 0 0 Z " fill="#E03A29" transform="translate(12,175)"/>
<path d="M0 0 C7.26 0 14.52 0 22 0 C22 3.96 22 7.92 22 12 C14.74 12 7.48 12 0 12 C0 8.04 0 4.08 0 0 Z " fill="#FDFDFD" transform="translate(116,0)"/>
<path d="M0 0 C14.85 0 29.7 0 45 0 C45 4.62 45 9.24 45 14 C44.67 14 44.34 14 44 14 C44 9.71 44 5.42 44 1 C29.81 1 15.62 1 1 1 C1 9.58 1 18.16 1 27 C8.26 27 15.52 27 23 27 C23 31.62 23 36.24 23 41 C19.04 41 15.08 41 11 41 C11 36.71 11 32.42 11 28 C7.37 28 3.74 28 0 28 C0 18.76 0 9.52 0 0 Z " fill="#794343" transform="translate(11,26)"/>
<path d="M0 0 C3.3 0 6.6 0 10 0 C10 8.25 10 16.5 10 25 C6.7 25 3.4 25 0 25 C0 16.75 0 8.5 0 0 Z " fill="#6B2627" transform="translate(106,0)"/>
<path d="M0 0 C0.33 0 0.66 0 1 0 C1 18.48 1 36.96 1 56 C-0.98 56 -2.96 56 -5 56 C-5 60.29 -5 64.58 -5 69 C-8.63 69 -12.26 69 -16 69 C-16 64.38 -16 59.76 -16 55 C-10.72 55 -5.44 55 0 55 C0 36.85 0 18.7 0 0 Z " fill="#8A4B4B" transform="translate(208,133)"/>
<path d="M0 0 C1.65 0 3.3 0 5 0 C3.68 0.33 2.36 0.66 1 1 C1 5.62 1 10.24 1 15 C4.63 15 8.26 15 12 15 C12 18.96 12 22.92 12 27 C8.37 27 4.74 27 1 27 C1 40.2 1 53.4 1 67 C0.67 67 0.34 67 0 67 C0 44.89 0 22.78 0 0 Z " fill="#8F2425" transform="translate(137,53)"/>
<path d="M0 0 C3.96 0 7.92 0 12 0 C12 4.29 12 8.58 12 13 C8.37 13 4.74 13 1 13 C1 21.58 1 30.16 1 39 C0.67 39 0.34 39 0 39 C0 26.13 0 13.26 0 0 Z " fill="#B92B26" transform="translate(104,176)"/>
<path d="M0 0 C7.26 0 14.52 0 22 0 C22 0.33 22 0.66 22 1 C18.37 1 14.74 1 11 1 C10.67 3.64 10.34 6.28 10 9 C11.88316159 10.10836423 11.88316159 10.10836423 14 11 C14.66 10.67 15.32 10.34 16 10 C16 10.66 16 11.32 16 12 C18.475 12.495 18.475 12.495 21 13 C21 13.33 21 13.66 21 14 C14.07 14 7.14 14 0 14 C0 9.38 0 4.76 0 0 Z " fill="#842426" transform="translate(171,107)"/>
<path d="M0 0 C0.33 0 0.66 0 1 0 C1.02933699 4.45831922 1.04691123 8.91661318 1.0625 13.375 C1.07087891 14.62667969 1.07925781 15.87835938 1.08789062 17.16796875 C1.10624691 24.1800701 0.90041679 31.04232614 0 38 C-0.33 38 -0.66 38 -1 38 C-1.495 35.03 -1.495 35.03 -2 32 C-2 33.32 -2 34.64 -2 36 C-2 36.66 -2 37.32 -2 38 C-2.66 38 -3.32 38 -4 38 C-4.495 38.99 -4.495 38.99 -5 40 C-5 39.34 -5 38.68 -5 38 C-5.66 38 -6.32 38 -7 38 C-7.495 38.99 -7.495 38.99 -8 40 C-8.495 36.04 -8.495 36.04 -9 32 C-8.01 32.495 -8.01 32.495 -7 33 C-5.515 31.515 -5.515 31.515 -4 30 C-5.65 30 -7.3 30 -9 30 C-9 29.34 -9 28.68 -9 28 C-5.04 27.505 -5.04 27.505 -1 27 C-0.67 22.71 -0.34 18.42 0 14 C-3.63 14 -7.26 14 -11 14 C-11 18.62 -11 23.24 -11 28 C-14.63 28 -18.26 28 -22 28 C-22 36.91 -22 45.82 -22 55 C-29.59 55 -37.18 55 -45 55 C-45 54.67 -45 54.34 -45 54 C-37.74 54 -30.48 54 -23 54 C-23 45.09 -23 36.18 -23 27 C-19.37 27 -15.74 27 -12 27 C-12 22.38 -12 17.76 -12 13 C-8.04 13 -4.08 13 0 13 C0 8.71 0 4.42 0 0 Z " fill="#945353" transform="translate(67,134)"/>
<path d="M0 0 C3.96 0 7.92 0 12 0 C12 4.62 12 9.24 12 14 C8.04 14 4.08 14 0 14 C0 9.38 0 4.76 0 0 Z " fill="#692325" transform="translate(22,93)"/>
<path d="M0 0 C3.96 0 7.92 0 12 0 C12 4.29 12 8.58 12 13 C8.04 13 4.08 13 0 13 C0 8.71 0 4.42 0 0 Z " fill="#E2382F" transform="translate(104,243)"/>
<path d="M0 0 C3.96 0 7.92 0 12 0 C12 4.29 12 8.58 12 13 C8.04 13 4.08 13 0 13 C0 8.71 0 4.42 0 0 Z " fill="#E8372E" transform="translate(91,229)"/>
<path d="M0 0 C3.96 0 7.92 0 12 0 C12.09765625 9.27734375 12.09765625 9.27734375 12 12 C11 13 11 13 8.49609375 13.09765625 C5.6640625 13.06510417 2.83203125 13.03255208 0 13 C0 8.71 0 4.42 0 0 Z " fill="#E23927" transform="translate(22,203)"/>
<path d="M0 0 C3.63 0 7.26 0 11 0 C11 4.62 11 9.24 11 14 C7.37 14 3.74 14 0 14 C0 9.38 0 4.76 0 0 Z " fill="#BC2B26" transform="translate(138,54)"/>
<path d="M0 0 C3.96 0 7.92 0 12 0 C12.125 8.5 12.125 8.5 11 13 C7.37 13 3.74 13 0 13 C0 8.71 0 4.42 0 0 Z " fill="#BC2B25" transform="translate(104,134)"/>
<path d="M0 0 C0 4.62 0 9.24 0 14 C-3.63 14 -7.26 14 -11 14 C-11 9.71 -11 5.42 -11 1 C-7 0 -7 0 0 0 Z " fill="#7A2829" transform="translate(171,242)"/>
<path d="M0 0 C3.63 0 7.26 0 11 0 C11 4.29 11 8.58 11 13 C7.37 13 3.74 13 0 13 C0 8.71 0 4.42 0 0 Z " fill="#782729" transform="translate(181,243)"/>
<path d="M0 0 C3.63 0 7.26 0 11 0 C11 4.29 11 8.58 11 13 C7.37 13 3.74 13 0 13 C0 8.71 0 4.42 0 0 Z " fill="#6B2426" transform="translate(56,121)"/>
<path d="M0 0 C0 4.95 0 9.9 0 15 C-3.3 15 -6.6 15 -10 15 C-10 10.38 -10 5.76 -10 1 C-2.25 0 -2.25 0 0 0 Z " fill="#C02B25" transform="translate(159,39)"/>
<path d="M0 0 C7.71484375 -0.09765625 7.71484375 -0.09765625 10 0 C11 1 11 1 11.09765625 3.72265625 C11.08605469 4.82480469 11.07445312 5.92695312 11.0625 7.0625 C11.05347656 8.16722656 11.04445312 9.27195312 11.03515625 10.41015625 C11.02355469 11.26480469 11.01195312 12.11945313 11 13 C7.37 13 3.74 13 0 13 C0 8.71 0 4.42 0 0 Z " fill="#C32C25" transform="translate(181,53)"/>
<path d="M0 0 C3.3 0 6.6 0 10 0 C10 4.29 10 8.58 10 13 C3.06640625 13.09765625 3.06640625 13.09765625 1 13 C0 12 0 12 -0.09765625 9.27734375 C-0.08605469 8.17519531 -0.07445312 7.07304688 -0.0625 5.9375 C-0.05347656 4.83277344 -0.04445312 3.72804688 -0.03515625 2.58984375 C-0.02355469 1.73519531 -0.01195312 0.88054687 0 0 Z " fill="#A82826" transform="translate(236,66)"/>
<path d="M0 0 C1.52519276 0.08937803 3.04681929 0.24537146 4.5625 0.4375 C5.80193359 0.59025391 5.80193359 0.59025391 7.06640625 0.74609375 C7.70449219 0.82988281 8.34257813 0.91367188 9 1 C7.7934375 2.175625 7.7934375 2.175625 6.5625 3.375 C4.01309583 5.71982856 4.01309583 5.71982856 3 8 C3.33 8.66 3.66 9.32 4 10 C5.65 10 7.3 10 9 10 C8.34 8.35 7.68 6.7 7 5 C7.99 4.34 8.98 3.68 10 3 C10.33 6.63 10.66 10.26 11 14 C7.37 14 3.74 14 0 14 C0 18.29 0 22.58 0 27 C-0.33 27 -0.66 27 -1 27 C-1.02886537 22.68751391 -1.04675255 18.37505238 -1.0625 14.0625 C-1.07087891 12.83080078 -1.07925781 11.59910156 -1.08789062 10.33007812 C-1.09111328 9.16025391 -1.09433594 7.99042969 -1.09765625 6.78515625 C-1.10289307 5.70113525 -1.10812988 4.61711426 -1.11352539 3.50024414 C-1 1 -1 1 0 0 Z " fill="#952426" transform="translate(56,162)"/>
<path d="M0 0 C3.3 0 6.6 0 10 0 C10 3.96 10 7.92 10 12 C6.7 12 3.4 12 0 12 C0 8.04 0 4.08 0 0 Z " fill="#FC980A" transform="translate(193,54)"/>
<path d="M0 0 C3.3 0 6.6 0 10 0 C10 3.96 10 7.92 10 12 C6.7 12 3.4 12 0 12 C0 8.04 0 4.08 0 0 Z " fill="#FEFEFE" transform="translate(138,13)"/>
<path d="M0 0 C3.3 0 6.6 0 10 0 C10 3.96 10 7.92 10 12 C6.7 12 3.4 12 0 12 C0 8.04 0 4.08 0 0 Z " fill="#692526" transform="translate(138,0)"/>
<path d="M0 0 C0 3.96 0 7.92 0 12 C-2.97 12 -5.94 12 -9 12 C-9 8.37 -9 4.74 -9 1 C-4 0 -4 0 0 0 Z " fill="#862425" transform="translate(22,40)"/>
<path d="M0 0 C0.33 0 0.66 0 1 0 C1 11.22 1 22.44 1 34 C2.485 33.505 2.485 33.505 4 33 C4.33 33.66 4.66 34.32 5 35 C4.34 35 3.68 35 3 35 C3 35.66 3 36.32 3 37 C6.3 37.66 9.6 38.32 13 39 C13 39.33 13 39.66 13 40 C8.71 40 4.42 40 0 40 C0 26.8 0 13.6 0 0 Z " fill="#7A2325" transform="translate(79,94)"/>
<path d="M0 0 C0.33 0 0.66 0 1 0 C1 4.29 1 8.58 1 13 C4.63 13 8.26 13 12 13 C12 13.33 12 13.66 12 14 C8.37 14 4.74 14 1 14 C1 18.29 1 22.58 1 27 C0.67 27 0.34 27 0 27 C0 22.71 0 18.42 0 14 C-6.93 14 -13.86 14 -21 14 C-21 13.67 -21 13.34 -21 13 C-14.07 13 -7.14 13 0 13 C0 8.71 0 4.42 0 0 Z " fill="#8E5454" transform="translate(55,107)"/>
<path d="M0 0 C3.96 0 7.92 0 12 0 C12 0.66 12 1.32 12 2 C8.70303895 3.09898702 7.59505097 2.87124444 4.3125 2.0625 C3.50425781 1.86785156 2.69601563 1.67320313 1.86328125 1.47265625 C0.94095703 1.23869141 0.94095703 1.23869141 0 1 C0 0.67 0 0.34 0 0 Z " fill="#7C4B4B" transform="translate(22,93)"/>
</svg>
